<svg xmlns="http://www.w3.org/2000/svg" version="1.1" xmlns:xlink="http://www.w3.org/1999/xlink" xmlns:svgjs="http://svgjs.dev/svgjs" width="1440" height="560" preserveAspectRatio="none" viewBox="0 0 1440 560"><g mask="url(&quot;#SvgjsMask1002&quot;)" fill="none"><path d="M644.98 573.87C777.59 503.81 709.79 67.27 959 62.69 1208.21 58.11 1423.39 245.59 1587.04 247.49" stroke="rgba(118, 118, 118, 0.58)" stroke-width="2"></path><path d="M643.9 627.36C751.05 582.53 672.63 272.99 914.5 249.72 1156.37 226.45 1314.84 94.49 1455.7 92.92" stroke="rgba(118, 118, 118, 0.58)" stroke-width="2"></path><path d="M417.21 641.41C533.6 620.84 503.13 332.06 774.28 331.53 1045.43 331 1306.5 470.87 1488.43 471.53" stroke="rgba(118, 118, 118, 0.58)" stroke-width="2"></path><path d="M72.1 656.28C275.95 638.23 412.71 218.01 762.98 217.21 1113.24 216.41 1273.54 422.2 1453.85 424.41" stroke="rgba(118, 118, 118, 0.58)" stroke-width="2"></path><path d="M230.24 572.39C397.42 566.25 510.92 308.82 841.05 299.11 1171.17 289.4 1288.76 73.26 1451.85 69.51" stroke="rgba(118, 118, 118, 0.58)" stroke-width="2"></path></g><defs><mask id="SvgjsMask1002"><rect width="1440" height="560" fill="#ffffff"></rect></mask></defs></svg>